<svg width="1920" height="1080" viewBox="0 0 1920 1080" fill="none" xmlns="http://www.w3.org/2000/svg">
<rect width="1920" height="1080" fill="black"/>
<path d="M1078.4 258.988C1078.4 258.988 961.793 402.418 967.758 411.564C976.031 402.418 925.893 257.42 925.893 257.42C925.893 257.42 915.431 226.932 882.603 127H257.731L236.009 220.812H438.615C543.956 220.812 608.273 264.311 590.31 341.383C570.905 425.303 478.961 461.131 381.027 461.131H344.405L391.514 255.945H227.795L158.286 555.723H390.759C565.652 555.723 731.569 461.919 761.487 341.383C766.722 319.226 765.984 263.531 752.544 230.746C752.544 229.958 751.772 228.449 751.034 226.194C750.295 225.406 749.523 220.075 752.544 219.295C754.003 218.515 756.999 221.592 756.999 222.329C756.999 222.329 758.517 226.194 759.977 229.22L907.956 655.689L1284.73 221.583L1443.91 220.804H1482.77C1588.18 220.804 1653.23 264.302 1635.23 341.374C1615.8 425.295 1523.19 461.123 1425.23 461.123H1387.85L1435.67 255.945H1272.01L1202.45 555.723H1434.93C1609.81 555.723 1777.24 461.919 1804.91 341.383C1833.31 220.812 1710.72 127 1534.32 127H1187.54C1095.61 237.603 1078.4 258.988 1078.4 258.988ZM913.191 657.214C470.756 657.214 112 709.087 112 773.191C112 837.252 470.756 889.125 913.191 889.125C1356.44 889.125 1715.23 837.252 1715.23 773.191C1715.24 709.087 1356.45 657.214 913.191 657.214ZM884.8 814.393C783.149 814.393 701.693 796.83 701.693 775.445C701.693 754.061 783.141 736.541 884.8 736.541C985.67 736.541 1067.21 754.052 1067.21 775.445C1067.21 796.83 985.67 814.393 884.8 814.393ZM1621 888.659V880.336H1572.26L1570.23 888.659H1590.53L1582.34 953H1592.55L1600.66 888.659H1621ZM1694.06 953V880.336H1686.01L1659.53 930.183L1647.52 880.336H1639.42L1616.91 953H1625.2L1643.34 896.982L1655.57 953L1684.07 896.982L1686.01 953H1694.06Z" fill="white"/>
</svg>
